<?xml version="1.0" standalone="no"?>
<!DOCTYPE svg PUBLIC "-//W3C//DTD SVG 20010904//EN"
        "http://www.w3.org/TR/2001/REC-SVG-20010904/DTD/svg10.dtd">
<svg version="1.0" xmlns="http://www.w3.org/2000/svg"
     width="256.000000pt" height="256.000000pt" viewBox="0 0 256.000000 256.000000"
     preserveAspectRatio="xMidYMid meet">

    <g transform="translate(0.000000,256.000000) scale(0.100000,-0.100000)"
       fill="#000000" stroke="none">
        <path d="M671 2183 l-115 -126 -27 -136 c-16 -75 -65 -313 -109 -530 -44 -217
-81 -396 -83 -397 -1 -1 -24 -14 -52 -28 l-50 -27 45 6 c25 3 162 12 305 20
331 19 711 19 1030 0 138 -8 293 -17 345 -20 l95 -5 -70 24 c-38 14 -122 34
-186 46 l-116 22 19 36 c22 44 23 77 3 115 -9 18 -12 40 -8 60 6 29 5 31 -10
18 -11 -8 -28 -11 -46 -8 -16 3 -45 1 -66 -4 -31 -9 -39 -8 -50 8 -19 25 -31
8 -18 -26 7 -19 7 -34 1 -46 -13 -23 -3 -70 24 -107 l22 -31 -70 6 c-38 4 -90
7 -115 7 l-47 0 -6 53 c-3 28 -17 241 -32 472 -14 231 -28 423 -32 427 -27 26
-439 298 -451 298 -9 -1 -67 -58 -130 -127z m344 -61 c94 -63 178 -122 187
-131 18 -16 20 -48 53 -756 4 -66 8 -130 11 -142 l4 -23 -153 0 c-85 0 -212
-5 -282 -10 -70 -6 -129 -9 -130 -8 -1 2 10 128 26 282 15 153 39 412 54 575
30 337 31 345 48 335 7 -4 89 -59 182 -122z m563 -956 c4 -21 -14 -37 -35 -29
-14 5 -18 35 -6 47 12 12 38 1 41 -18z m80 -2 c2 -12 -4 -24 -12 -27 -19 -7
-40 18 -32 39 8 22 40 13 44 -12z"/>
        <path d="M880 2071 c0 -46 3 -52 30 -66 l29 -15 7 35 c8 45 3 56 -35 78 l-31
18 0 -50z"/>
        <path d="M1010 1993 c0 -44 3 -51 26 -62 32 -14 34 -13 37 33 2 31 -2 39 -30
57 l-33 21 0 -49z"/>
        <path d="M1130 1957 c0 -8 -3 -28 -6 -45 -5 -27 -2 -32 24 -46 42 -22 42 -21
42 23 0 33 -5 43 -30 61 -23 16 -30 18 -30 7z"/>
        <path d="M866 1919 c-11 -54 -7 -65 28 -81 l34 -17 6 31 c11 54 7 67 -24 83
-38 20 -36 20 -44 -16z"/>
        <path d="M1000 1831 c0 -46 3 -53 26 -61 40 -16 44 -13 44 33 0 45 0 44 -62
75 -5 2 -8 -19 -8 -47z"/>
        <path d="M1120 1765 c0 -39 4 -46 30 -60 16 -8 31 -15 35 -15 3 0 5 20 5 45 0
39 -4 46 -30 60 -16 8 -31 15 -35 15 -3 0 -5 -20 -5 -45z"/>
        <path d="M856 1757 c-3 -12 -6 -36 -6 -52 0 -25 6 -33 32 -43 17 -6 33 -10 35
-9 2 2 6 24 9 48 6 43 5 45 -29 61 -34 16 -35 16 -41 -5z"/>
        <path d="M996 1694 c-3 -9 -6 -31 -6 -50 0 -27 6 -36 31 -49 17 -9 32 -15 34
-13 1 2 5 23 9 48 6 45 6 46 -28 62 -30 15 -35 15 -40 2z"/>
        <path d="M1120 1595 c0 -39 4 -46 30 -60 16 -8 31 -15 35 -15 3 0 5 20 5 44 0
35 -5 48 -22 60 -38 27 -48 20 -48 -29z"/>
        <path d="M846 1593 c-3 -4 -6 -29 -6 -57 0 -49 2 -52 32 -64 17 -6 33 -11 34
-9 2 1 6 25 9 52 7 50 7 50 -28 67 -19 9 -38 14 -41 11z"/>
        <path d="M986 1507 c-12 -59 -7 -73 28 -90 19 -8 37 -13 40 -10 3 4 6 27 6 53
0 43 -2 47 -34 61 l-34 16 -6 -30z"/>
        <path d="M1120 1425 c0 -39 4 -46 30 -60 16 -8 31 -15 35 -15 3 0 5 21 5 46 0
49 -17 73 -52 74 -15 0 -18 -9 -18 -45z"/>
        <path d="M826 1378 c-14 -69 -9 -86 30 -98 19 -7 37 -10 38 -8 2 1 6 25 8 51
6 47 5 48 -32 67 l-38 19 -6 -31z"/>
        <path d="M980 1296 c0 -52 1 -55 32 -65 17 -6 32 -10 33 -9 1 2 5 24 9 50 6
41 4 48 -16 62 -44 31 -58 22 -58 -38z"/>
        <path d="M1122 1248 c3 -48 5 -53 36 -65 l32 -13 0 53 c0 48 -3 55 -25 65 -42
19 -46 15 -43 -40z"/>
        <path d="M1546 1173 c-11 -11 -6 -23 9 -23 8 0 15 4 15 9 0 13 -16 22 -24 14z"/>
        <path d="M1627 1173 c-12 -11 -8 -23 8 -23 8 0 15 7 15 15 0 16 -12 20 -23 8z"/>
        <path d="M93 800 c-37 -15 -53 -61 -53 -149 0 -74 2 -83 28 -110 39 -43 108
-46 147 -6 21 20 25 34 25 80 l0 55 -50 0 c-47 0 -50 -2 -50 -25 0 -18 5 -25
20 -25 13 0 20 -7 20 -18 0 -41 -51 -57 -70 -23 -5 11 -10 47 -10 80 0 47 4
65 20 81 22 22 46 17 55 -11 4 -13 16 -19 36 -19 36 0 39 27 6 65 -24 29 -86
42 -124 25z"/>
        <path d="M594 800 c-43 -17 -54 -48 -54 -148 0 -85 2 -95 25 -117 53 -54 153
-26 170 48 7 25 5 27 -24 27 -24 0 -34 -6 -41 -25 -10 -27 -38 -33 -58 -13 -7
7 -12 43 -12 90 0 64 3 79 18 86 24 13 42 4 52 -24 7 -16 17 -24 34 -24 33 0
38 11 25 49 -18 50 -80 73 -135 51z"/>
        <path d="M1464 798 c-22 -10 -44 -47 -44 -73 0 -37 26 -68 78 -91 45 -20 53
-27 50 -46 -4 -32 -57 -39 -65 -9 -4 15 -13 21 -34 21 -37 0 -39 -31 -4 -65
19 -20 34 -25 73 -25 63 0 92 28 92 87 0 46 -24 73 -85 93 -39 13 -50 33 -28
55 19 20 35 15 48 -13 11 -26 65 -32 65 -7 0 65 -80 105 -146 73z"/>
        <path d="M2404 800 c-43 -17 -54 -48 -54 -148 0 -85 2 -95 25 -117 37 -38 108
-37 143 1 17 20 22 37 22 80 l0 54 -50 0 c-47 0 -50 -2 -50 -25 0 -19 5 -25
21 -25 16 0 20 -5 17 -27 -3 -31 -30 -42 -53 -23 -23 19 -21 166 2 179 21 11
53 -3 53 -24 0 -10 10 -15 30 -15 25 0 30 4 30 23 -1 57 -73 93 -136 67z"/>
        <path d="M290 682 c0 -133 8 -155 64 -170 45 -13 80 -5 108 25 21 22 23 35 26
144 l4 119 -31 0 -31 0 0 -94 c0 -106 -10 -146 -38 -146 -35 0 -42 20 -42 132
l0 108 -30 0 -30 0 0 -118z"/>
        <path d="M790 655 l0 -145 30 0 c29 0 30 2 30 44 0 25 6 48 14 55 11 9 18 1
37 -44 22 -50 27 -55 57 -55 17 0 32 2 32 5 0 3 -16 41 -36 85 l-36 78 36 62
36 61 -37 -3 c-33 -3 -40 -9 -68 -56 l-30 -54 -3 56 c-3 55 -4 56 -32 56 l-30
0 0 -145z"/>
        <path d="M1030 655 l0 -145 80 0 c79 0 80 0 80 25 0 23 -3 25 -50 25 l-50 0 0
34 c0 34 1 35 43 38 37 3 42 6 42 28 0 23 -3 24 -42 22 l-43 -4 0 36 0 36 50
0 c47 0 50 2 50 25 0 25 -1 25 -80 25 l-80 0 0 -145z"/>
        <path d="M1240 655 l0 -145 80 0 c79 0 80 0 80 25 0 23 -3 25 -50 25 l-50 0 0
120 0 120 -30 0 -30 0 0 -145z"/>
        <path d="M1660 655 l0 -145 70 0 c62 0 74 3 95 25 29 28 35 95 11 114 -12 10
-12 16 0 41 9 17 12 39 8 55 -10 41 -40 55 -116 55 l-68 0 0 -145z m118 66 c4
-25 -12 -41 -40 -41 -14 0 -18 8 -18 36 0 33 2 35 28 32 20 -2 28 -9 30 -27z
m6 -103 c15 -25 -3 -52 -38 -56 -24 -3 -26 -1 -26 38 0 39 2 41 26 38 15 -2
32 -11 38 -20z"/>
        <path d="M1900 655 l0 -145 80 0 c79 0 80 0 80 25 0 23 -3 25 -50 25 l-50 0 0
34 c0 34 1 35 43 38 35 2 43 7 45 26 3 20 -1 22 -42 22 -46 0 -46 0 -46 35 l0
35 50 0 c47 0 50 2 50 25 0 25 -1 25 -80 25 l-80 0 0 -145z"/>
        <path d="M2110 655 l0 -145 30 0 c29 0 30 1 30 50 0 39 4 50 16 50 9 0 24 -20
36 -50 19 -46 23 -50 54 -50 l33 0 -25 56 -25 57 23 24 c33 35 30 99 -6 130
-23 19 -38 23 -97 23 l-69 0 0 -145z m114 89 c19 -7 21 -55 4 -72 -7 -7 -22
-12 -35 -12 -21 0 -23 5 -23 45 0 47 12 55 54 39z"/>
    </g>
</svg>
